<?xml version="1.0" encoding="UTF-8"?>
<svg width="800px" height="320px" viewBox="0 0 800 320" version="1.1" xmlns="http://www.w3.org/2000/svg" xmlns:xlink="http://www.w3.org/1999/xlink">
    <!-- Generator: Sketch 58 (84663) - https://sketch.com -->
    <title>RadioTimeBanner</title>
    <desc>Created with Sketch.</desc>
    <g id="RadioTimeBanner" stroke="none" stroke-width="1" fill="none" fill-rule="evenodd">
        <rect fill="#C1B280" x="0" y="0" width="800" height="320"></rect>
        <rect id="Rectangle" fill="#C1B280" x="0" y="0" width="800" height="320"></rect>
        <g id="RADIO-TIME-LOGO" transform="translate(141.000000, 64.000000)">
            <g id="RADIO">
                <rect id="Rectangle" stroke="#000000" stroke-width="7" fill="#000000" x="3.5" y="3.5" width="309.057692" height="109.465517" rx="15"></rect>
                <path d="M57.0360999,36.6042607 L70.8067674,36.6042607 C73.4317864,36.6042607 75.4789429,37.1244075 76.9482894,38.1647156 L77.2543053,38.3956004 C79.1381633,39.7490639 80.1066109,41.9384572 80.1596774,44.9638461 C80.1596774,47.4850036 79.3504266,49.6080517 77.7319007,51.3330541 C76.0868417,53.1907491 73.6192901,54.1461207 70.329172,54.1991977 L57.0360999,54.1991977 L57.0360999,36.6042607 Z M48.2403846,86.801581 L57.0360999,86.801581 L57.0360999,62.0014775 L68.2595919,62.0014775 L80.2392766,86.801581 L90.7065758,86.801581 L77.2543053,61.0460963 C84.6305379,58.2064769 88.3716644,52.8457804 88.4777973,44.9638461 C88.3244943,39.8016166 86.5350398,35.783767 83.1093823,32.910187 L82.7068528,32.5836981 C79.6555336,30.0360022 75.715411,28.7621734 70.8863666,28.7621734 L48.2403846,28.7621734 L48.2403846,86.801581 Z M110.615749,66.02204 L119.013468,40.6646308 L119.172667,40.6646308 L127.570386,66.02204 L110.615749,66.02204 Z M134.575118,86.801581 L143.848429,86.801581 L122.754632,28.7621734 L115.391703,28.7621734 L94.297906,86.801581 L103.611016,86.801581 L108.068573,73.8243198 L130.077762,73.8243198 L134.575118,86.801581 Z M152.454511,86.801581 L172.155321,86.801581 C176.2508,86.801581 179.746892,85.9553003 182.643689,84.2627148 L183.179815,83.9354374 C186.204601,82.157358 188.566021,79.9016194 190.264147,77.168154 C190.900944,76.1331525 191.444867,75.1379737 191.895931,74.1825877 C192.320463,73.2006632 192.638856,72.086063 192.851122,70.8387535 L192.955047,70.2102381 C193.320229,67.7730357 193.510756,63.8767254 193.526633,58.5212182 L193.527715,57.7818772 C193.527715,51.9168689 193.381785,47.7901941 193.08992,45.4017292 C192.752224,43.2303974 191.986939,41.1468245 190.794043,39.1509591 L190.423345,38.5548306 C186.49643,32.0794368 180.606146,28.8152504 172.752315,28.7621734 L152.454511,28.7621734 L152.454511,86.801581 Z M161.250226,37.0819513 L171.757325,37.0819513 C176.214904,36.9757973 179.66417,38.6078905 182.105225,41.9782799 C183.29922,43.3317434 184.055405,45.0965271 184.373804,47.272684 L184.441861,47.968522 C184.624542,50.0618705 184.720956,53.1905873 184.731105,57.3547388 L184.725906,60.041358 C184.698822,64.1681094 184.581455,67.0506836 184.373804,68.6891582 C184.108471,70.5999178 183.48495,72.1789348 182.503222,73.4262443 C180.274432,76.7966337 176.692502,78.4818031 171.757325,78.4818031 L161.250226,78.4818031 L161.250226,37.0819513 Z M206.193358,86.801581 L214.989074,86.801581 L214.989074,28.7621734 L206.193358,28.7621734 L206.193358,86.801581 Z M227.615678,57.0681814 L227.622287,59.913801 C227.661595,65.3866175 227.858135,69.1609286 228.211911,71.236829 C228.424177,72.4841385 228.689505,73.5191244 229.007903,74.3418179 C229.352835,75.1379729 229.737561,75.9739231 230.162092,76.8496936 C231.474602,79.3513894 233.52671,81.5756386 236.318471,83.5224988 L236.928027,83.9354374 C239.979346,86.0585174 243.786805,87.1731176 248.350517,87.2792716 C252.967296,87.1731176 256.814554,86.0585174 259.892406,83.9354374 C262.943725,81.891973 265.145949,79.530082 266.499142,76.8496936 C267.480871,75.4431531 268.157458,73.572217 268.528923,71.236829 L268.602735,70.6824703 C268.88663,68.3235008 269.034253,64.2661126 269.045608,58.5102113 L269.040379,55.6919725 C269.007382,50.0999432 268.836898,46.2850879 268.528923,44.2473102 C268.157458,41.9649993 267.480871,40.1206013 266.499142,38.7140608 C265.145949,36.0336724 262.943725,33.6452433 259.892406,31.5487018 C256.814554,29.4256219 252.967296,28.3375598 248.350517,28.2844828 C243.786805,28.3375598 239.979346,29.4256219 236.928027,31.5487018 C233.823641,33.6452433 231.568352,36.0336724 230.162092,38.7140608 C229.286496,40.1206013 228.636442,41.9649993 228.211911,44.2473102 C227.828127,46.4481101 227.629385,50.7216933 227.615678,57.0681814 L227.615678,57.0681814 Z M236.450432,57.7818772 L236.460382,55.7274267 C236.506814,51.1325455 236.715761,47.9295177 237.087226,46.1182651 C237.458691,44.1544161 238.214876,42.548861 239.355804,41.3015516 C240.284466,40.1073191 241.504976,39.1121403 243.017369,38.3159853 C244.503228,37.5463688 246.280927,37.1350283 248.350517,37.0819513 C250.446641,37.1350283 252.264138,37.5463688 253.803065,38.3159853 C255.262391,39.1121403 256.429835,40.1073191 257.305431,41.3015516 C258.446359,42.548861 259.229077,44.1544161 259.653608,46.1182651 L259.748962,46.6736373 C260.083391,48.8488646 260.250603,52.5515813 260.250603,57.7818772 L260.241275,59.8350837 C260.197744,64.4241597 260.001857,67.601064 259.653608,69.3658742 C259.229077,71.3828001 258.446359,73.0148934 257.305431,74.2622028 C256.527123,75.3237428 255.51822,76.2070374 254.278696,76.9121071 L253.803065,77.168154 C252.264138,78.0439244 250.446641,78.4818031 248.350517,78.4818031 C246.280927,78.4818031 244.503228,78.0439244 243.017369,77.168154 C241.504976,76.425076 240.284466,75.4564353 239.355804,74.2622028 C238.309953,73.1188358 237.587393,71.6521436 237.188107,69.8620884 L237.087226,69.3658742 C236.662694,67.3489482 236.450432,63.4876545 236.450432,57.7818772 Z" fill="#FFFFFF" fill-rule="nonzero"></path>
            </g>
            <g id="TIME" transform="translate(269.480769, 76.534483)">
                <rect id="Rectangle" stroke="#000000" stroke-width="9" fill="#FFFFFF" x="4.5" y="4.5" width="240.519231" height="107.465517" rx="15"></rect>
                <path d="M52.9280192,88.7616983 C51.4064988,88.7616983 50.1566972,88.2861355 49.1785769,87.3349957 C48.2004566,86.3838559 47.7114038,85.2017427 47.7114038,83.7886207 L47.7114038,36.5036207 L58.3076538,36.5036207 L58.3076538,83.7886207 C58.3076538,85.2017427 57.8050162,86.3838559 56.799726,87.3349957 C55.7944357,88.2861355 54.5038797,88.7616983 52.9280192,88.7616983 Z M34.9143942,41.069069 C33.5015538,41.069069 32.3196762,40.6342687 31.368726,39.7646552 C30.4177757,38.8950416 29.9423077,37.753691 29.9423077,36.340569 C29.9423077,34.927447 30.4177757,33.7996838 31.368726,32.9572457 C32.3196762,32.1148076 33.5015538,31.6935948 34.9143942,31.6935948 L71.1046635,31.6935948 C72.5175039,31.6935948 73.6993815,32.1283951 74.6503317,32.9980086 C75.601282,33.8676222 76.07675,35.0089728 76.07675,36.4220948 C76.07675,37.8352168 75.601282,38.96298 74.6503317,39.8054181 C73.6993815,40.6478562 72.5175039,41.069069 71.1046635,41.069069 L34.9143942,41.069069 Z M97.2213032,83.7886207 C97.2213032,85.2017427 96.7050808,86.3838559 95.6726205,87.3349957 C94.6401602,88.2861355 93.4446978,88.7616983 92.0861974,88.7616983 C90.564677,88.7616983 89.342045,88.2861355 88.4182647,87.3349957 C87.4944844,86.3838559 87.0326012,85.2017427 87.0326012,83.7886207 L87.0326012,36.6666724 C87.0326012,35.2535504 87.521654,34.0714372 88.4997743,33.1202974 C89.4778946,32.1691576 90.7276962,31.6935948 92.2492166,31.6935948 C93.553377,31.6935948 94.708085,32.1691576 95.7133753,33.1202974 C96.7186656,34.0714372 97.2213032,35.2535504 97.2213032,36.6666724 L97.2213032,83.7886207 Z M139.045864,61.1309639 L157.327452,33.8132672 C158.359913,32.3457944 159.691223,31.612069 161.321424,31.612069 C162.625584,31.612069 163.793877,32.0740442 164.826337,32.9980086 C165.858797,33.921973 166.37502,35.1176737 166.37502,36.5851466 L166.37502,83.7886207 C166.37502,85.2017427 165.913137,86.3838559 164.989356,87.3349957 C164.065576,88.2861355 162.842944,88.7616983 161.321424,88.7616983 C159.799903,88.7616983 158.563686,88.2861355 157.612736,87.3349957 C156.661786,86.3838559 156.186318,85.2017427 156.186318,83.7886207 L156.186318,50.9708645 L142.737231,71.4782155 C142.248171,72.0760748 141.636855,72.5924001 140.903265,73.0272069 C140.169675,73.4620137 139.422511,73.6522388 138.661751,73.5978879 C137.95533,73.6522388 137.235336,73.4620137 136.501746,73.0272069 C135.768156,72.5924001 135.15684,72.0760748 134.667779,71.4782155 L121.218693,50.2089291 L121.218693,83.7886207 C121.218693,85.2017427 120.783979,86.3838559 119.914539,87.3349957 C119.045099,88.2861355 117.903976,88.7616983 116.491135,88.7616983 C115.132635,88.7616983 114.018681,88.2861355 113.149241,87.3349957 C112.279801,86.3838559 111.845087,85.2017427 111.845087,83.7886207 L111.845087,36.5851466 C111.845087,35.2263754 112.347725,34.0578497 113.353015,33.0795345 C114.358305,32.1012192 115.567352,31.612069 116.980193,31.612069 C117.740953,31.612069 118.542456,31.8158816 119.384727,32.2235129 C120.226997,32.6311443 120.865482,33.1610571 121.300202,33.8132672 L139.045864,61.1309639 L139.045864,61.1309639 Z M191.187506,41.069069 L191.187506,54.9284655 L209.608679,54.9284655 C211.021519,54.9284655 212.203397,55.3768533 213.154347,56.2736422 C214.105297,57.1704312 214.580765,58.3253694 214.580765,59.7384914 C214.580765,61.0972625 214.105297,62.1978507 213.154347,63.0402888 C212.203397,63.8827269 211.021519,64.3039397 209.608679,64.3039397 L191.187506,64.3039397 L191.187506,79.3862241 L213.276611,79.3862241 C214.689452,79.3862241 215.871329,79.8617869 216.82228,80.8129267 C217.77323,81.7640665 218.248698,82.8646547 218.248698,84.1147241 C218.248698,85.4734953 217.77323,86.5876709 216.82228,87.4572845 C215.871329,88.326898 214.689452,88.7616983 213.276611,88.7616983 L185.97089,88.7616983 C184.55805,88.7616983 183.376172,88.2861355 182.425222,87.3349957 C181.474272,86.3838559 180.998804,85.2017427 180.998804,83.7886207 L180.998804,36.6666724 C180.998804,35.2535504 181.474272,34.0714372 182.425222,33.1202974 C183.376172,32.1691576 184.55805,31.6935948 185.97089,31.6935948 L213.276611,31.6935948 C214.689452,31.6935948 215.871329,32.1419826 216.82228,33.0387716 C217.77323,33.9355605 218.248698,35.0904987 218.248698,36.5036207 C218.248698,37.8623919 217.77323,38.96298 216.82228,39.8054181 C215.871329,40.6478562 214.689452,41.069069 213.276611,41.069069 L191.187506,41.069069 Z" fill="#000000" fill-rule="nonzero"></path>
            </g>
        </g>
    </g>
</svg>