<?xml version="1.0" encoding="UTF-8"?>
<svg width="800px" height="320px" viewBox="0 0 800 320" version="1.1" xmlns="http://www.w3.org/2000/svg" xmlns:xlink="http://www.w3.org/1999/xlink">
    <!-- Generator: Sketch 58 (84663) - https://sketch.com -->
    <title>RadioTimeBanner</title>
    <desc>Created with Sketch.</desc>
    <g id="RadioTimeBanner" stroke="none" stroke-width="1" fill="none" fill-rule="evenodd">
        <rect fill="#C1B280" x="0" y="0" width="800" height="320"></rect>
        <rect id="Rectangle" fill="#C1B280" x="0" y="0" width="800" height="320"></rect>
        <g id="RADIO-TIME-LOGO" transform="translate(135.000000, 62.000000)">
            <g id="RADIO">
                <rect id="Rectangle" stroke="#000000" stroke-width="7" fill="#000000" x="3.5" y="3.5" width="315.75641" height="111.87931" rx="15"></rect>
                <path d="M58.2449576,37.3628982 L72.3074889,37.3628982 C74.9881441,37.3628982 77.0786893,37.8938252 78.579178,38.9556941 L78.8916798,39.1913642 C80.8154654,40.5728787 81.8044389,42.807648 81.8586301,45.8957393 C81.8586301,48.4691487 81.0322275,50.6361978 79.3793977,52.3969516 C77.6994722,54.293148 75.1796219,55.2683201 71.819771,55.3224971 L58.2449576,55.3224971 L58.2449576,37.3628982 Z M49.2628205,88.6005775 L58.2449576,88.6005775 L58.2449576,63.2864822 L69.706327,63.2864822 L81.9399164,88.6005775 L92.6290659,88.6005775 L78.8916798,62.3113003 C86.4242487,59.4128287 90.244667,53.9410298 90.3530493,45.8957393 C90.1964971,40.6265206 88.3691158,36.5253995 84.8708528,33.5922634 L84.4597919,33.2590079 C81.3438012,30.65851 77.3201692,29.3582806 72.3887752,29.3582806 L49.2628205,29.3582806 L49.2628205,88.6005775 Z M112.960206,67.3903724 L121.535912,41.507421 L121.698484,41.507421 L130.27419,67.3903724 L112.960206,67.3903724 Z M137.427385,88.6005775 L146.89724,88.6005775 L125.356368,29.3582806 L117.837384,29.3582806 L96.2965128,88.6005775 L105.807011,88.6005775 L110.359044,75.3543575 L132.834708,75.3543575 L137.427385,88.6005775 Z M155.685724,88.6005775 L175.804085,88.6005775 C179.986366,88.6005775 183.556557,87.7367573 186.51475,86.0090923 L187.062239,85.675032 C190.151134,83.8601012 192.562604,81.5576115 194.29672,78.7674939 C194.947014,77.7110417 195.502465,76.6952374 195.96309,75.7200507 C196.396619,74.7177754 196.721761,73.5800747 196.938525,72.3069142 L197.044653,71.6653726 C197.417575,69.1776582 197.61214,65.2005954 197.628353,59.7340932 L197.629459,58.979429 C197.629459,52.9928661 197.480436,48.7806645 197.182384,46.3426977 C196.837532,44.1263642 196.056026,41.9996085 194.837847,39.9623779 L194.459293,39.3538945 C190.449148,32.7442956 184.434022,29.4124576 176.413733,29.3582806 L155.685724,29.3582806 L155.685724,88.6005775 Z M164.667861,37.8504891 L175.397654,37.8504891 C179.94971,37.742135 183.472081,39.408054 185.964874,42.8482961 C187.184174,44.2298106 187.956387,46.0311701 188.281534,48.2524288 L188.351034,48.9626882 C188.537586,51.0994222 188.636044,54.2929829 188.646407,58.5434381 L188.641099,61.2857384 C188.61344,65.4980184 188.493586,68.4403351 188.281534,70.1127677 C188.010578,72.0631285 187.373841,73.6748713 186.371305,74.9480317 C184.095277,78.3882738 180.43743,80.108369 175.397654,80.108369 L164.667861,80.108369 L164.667861,37.8504891 Z M210.563545,88.6005775 L219.545682,88.6005775 L219.545682,29.3582806 L210.563545,29.3582806 L210.563545,88.6005775 Z M232.439903,58.2509416 L232.446651,61.1555378 C232.486793,66.7417805 232.687498,70.5943158 233.048772,72.71324 C233.265537,73.9864004 233.536489,75.0428369 233.861635,75.882581 C234.213878,76.6952366 234.606758,77.5485122 235.040287,78.4424333 C236.380614,80.9959778 238.476216,83.2663255 241.327148,85.2535351 L241.949623,85.675032 C245.065614,87.8421136 248.95377,88.9798144 253.614208,89.0881684 C258.328838,88.9798144 262.257637,87.8421136 265.400723,85.675032 C268.516714,83.589216 270.765612,81.1783738 272.147487,78.4424333 C273.150023,77.0067418 273.840949,75.0970298 274.220287,72.71324 L274.295664,72.147392 C274.585575,69.7395319 274.736327,65.5980528 274.747924,59.7228582 L274.742583,56.8462103 C274.708887,51.138284 274.53479,47.2443643 274.220287,45.1643529 C273.840949,42.8347402 273.150023,40.9521163 272.147487,39.5164248 C270.765612,36.7804843 268.516714,34.342554 265.400723,32.202561 C262.257637,30.0354794 258.328838,28.9248667 253.614208,28.8706897 C248.95377,28.9248667 245.065614,30.0354794 241.949623,32.202561 C238.779441,34.342554 236.476352,36.7804843 235.040287,39.5164248 C234.146133,40.9521163 233.482301,42.8347402 233.048772,45.1643529 C232.656854,47.4107652 232.4539,51.7729201 232.439903,58.2509416 L232.439903,58.2509416 Z M241.461905,58.979429 L241.472066,56.8823992 C241.519483,52.1922873 241.732858,48.9228755 242.112196,47.0740841 C242.491534,45.0695336 243.263746,43.4307027 244.428855,42.1575423 C245.3772,40.9385589 246.623578,39.9227546 248.168026,39.110099 C249.685378,38.3245319 251.500754,37.9046662 253.614208,37.8504891 C255.754758,37.9046662 257.610777,38.3245319 259.18232,39.110099 C260.672577,39.9227546 261.864764,40.9385589 262.758918,42.1575423 C263.924028,43.4307027 264.723335,45.0695336 265.156864,47.0740841 L265.254239,47.6409666 C265.595755,49.8612763 265.766511,53.6407332 265.766511,58.979429 L265.756986,61.0751891 C265.712533,65.7593755 265.512493,69.0021223 265.156864,70.8035089 C264.723335,72.8622364 263.924028,74.5281554 262.758918,75.8013158 C261.964115,76.8848566 260.933828,77.7864579 259.668033,78.5061404 L259.18232,78.7674939 C257.610777,79.6614151 255.754758,80.108369 253.614208,80.108369 C251.500754,80.108369 249.685378,79.6614151 248.168026,78.7674939 C246.623578,78.0090154 245.3772,77.0202992 244.428855,75.8013158 C243.360838,74.6342521 242.622964,73.1371621 242.215215,71.3100073 L242.112196,70.8035089 C241.678667,68.7447814 241.461905,64.8034608 241.461905,58.979429 Z" fill="#FFFFFF" fill-rule="nonzero"></path>
            </g>
            <g id="TIME" transform="translate(275.192308, 78.120690)">
                <rect id="Rectangle" stroke="#000000" stroke-width="9" fill="#FFFFFF" x="4.5" y="4.5" width="245.807692" height="109.87931" rx="15"></rect>
                <path d="M54.0498077,90.601319 C52.4960392,90.601319 51.2197486,90.1159 50.2208974,89.1450474 C49.2220463,88.1741949 48.7226282,86.9675819 48.7226282,85.5251724 L48.7226282,37.2601724 L59.5434615,37.2601724 L59.5434615,85.5251724 C59.5434615,86.9675819 59.0301707,88.1741949 58.0035737,89.1450474 C56.9769767,90.1159 55.6590679,90.601319 54.0498077,90.601319 Z M35.654391,41.9202414 C34.211606,41.9202414 33.004679,41.4764297 32.0335737,40.5887931 C31.0624684,39.7011565 30.5769231,38.5361509 30.5769231,37.0937414 C30.5769231,35.6513319 31.0624684,34.5001954 32.0335737,33.6402974 C33.004679,32.7803994 34.211606,32.3504569 35.654391,32.3504569 L72.6116987,32.3504569 C74.0544837,32.3504569 75.2614107,32.7942686 76.232516,33.6819052 C77.2036213,34.5695418 77.6891667,35.7345474 77.6891667,37.1769569 C77.6891667,38.6193664 77.2036213,39.7705029 76.232516,40.6304009 C75.2614107,41.4902988 74.0544837,41.9202414 72.6116987,41.9202414 L35.654391,41.9202414 Z M99.2818703,85.5251724 C99.2818703,86.9675819 98.7547068,88.1741949 97.7003639,89.1450474 C96.646021,90.1159 95.4252212,90.601319 94.037928,90.601319 C92.4841595,90.601319 91.2356143,90.1159 90.2922549,89.1450474 C89.3488955,88.1741949 88.8772229,86.9675819 88.8772229,85.5251724 L88.8772229,37.4266034 C88.8772229,35.9841939 89.3766409,34.777581 90.3754921,33.8067284 C91.3743432,32.8358759 92.6506339,32.3504569 94.2044023,32.3504569 C95.5362039,32.3504569 96.7153855,32.8358759 97.7419825,33.8067284 C98.7685795,34.777581 99.2818703,35.9841939 99.2818703,37.4266034 L99.2818703,85.5251724 Z M141.992886,62.3979269 L160.661946,34.5140603 C161.716289,33.0161735 163.075816,32.2672414 164.740567,32.2672414 C166.072369,32.2672414 167.265423,32.7387913 168.319766,33.6819052 C169.374109,34.6250191 169.901273,35.8455011 169.901273,37.3433879 L169.901273,85.5251724 C169.901273,86.9675819 169.4296,88.1741949 168.486241,89.1450474 C167.542881,90.1159 166.294336,90.601319 164.740567,90.601319 C163.186799,90.601319 161.924381,90.1159 160.953276,89.1450474 C159.982171,88.1741949 159.496625,86.9675819 159.496625,85.5251724 L159.496625,52.0272555 L145.762491,72.9596293 C145.263065,73.5698795 144.638792,74.0969058 143.889654,74.5407241 C143.140516,74.9845424 142.377516,75.17871 141.600632,75.1232328 C140.879239,75.17871 140.143985,74.9845424 139.394846,74.5407241 C138.645708,74.0969058 138.021435,73.5698795 137.52201,72.9596293 L123.787875,51.2495287 L123.787875,85.5251724 C123.787875,86.9675819 123.343948,88.1741949 122.45608,89.1450474 C121.568213,90.1159 120.402904,90.601319 118.960119,90.601319 C117.572826,90.601319 116.435262,90.1159 115.547394,89.1450474 C114.659527,88.1741949 114.2156,86.9675819 114.2156,85.5251724 L114.2156,37.3433879 C114.2156,35.9564557 114.72889,34.7637119 115.755487,33.7651207 C116.782084,32.7665295 118.016757,32.2672414 119.459542,32.2672414 C120.236426,32.2672414 121.054917,32.4752781 121.915039,32.8913578 C122.77516,33.3074374 123.427179,33.8483329 123.871112,34.5140603 L141.992886,62.3979269 L141.992886,62.3979269 Z M195.239649,41.9202414 L195.239649,56.0668793 L214.051252,56.0668793 C215.494037,56.0668793 216.700964,56.5245601 217.672069,57.4399353 C218.643174,58.3553106 219.12872,59.5341853 219.12872,60.9765948 C219.12872,62.363527 218.643174,63.4869253 217.672069,64.3468233 C216.700964,65.2067213 215.494037,65.6366638 214.051252,65.6366638 L195.239649,65.6366638 L195.239649,81.0315345 L217.796925,81.0315345 C219.23971,81.0315345 220.446637,81.5169535 221.417742,82.487806 C222.388848,83.4586586 222.874393,84.5820568 222.874393,85.8580345 C222.874393,87.2449667 222.388848,88.3822341 221.417742,89.2698707 C220.446637,90.1575073 219.23971,90.601319 217.796925,90.601319 L189.91247,90.601319 C188.469685,90.601319 187.262758,90.1159 186.291653,89.1450474 C185.320547,88.1741949 184.835002,86.9675819 184.835002,85.5251724 L184.835002,37.4266034 C184.835002,35.9841939 185.320547,34.777581 186.291653,33.8067284 C187.262758,32.8358759 188.469685,32.3504569 189.91247,32.3504569 L217.796925,32.3504569 C219.23971,32.3504569 220.446637,32.8081377 221.417742,33.7235129 C222.388848,34.6388882 222.874393,35.8177629 222.874393,37.2601724 C222.874393,38.6471046 222.388848,39.7705029 221.417742,40.6304009 C220.446637,41.4902988 219.23971,41.9202414 217.796925,41.9202414 L195.239649,41.9202414 Z" fill="#000000" fill-rule="nonzero"></path>
            </g>
        </g>
    </g>
</svg>